<mxfile host="drawio-plugin" modified="2022-11-21T18:47:53.024Z" agent="5.0 (Macintosh; Intel Mac OS X 10_15_7) AppleWebKit/537.36 (KHTML, like Gecko) Chrome/97.0.4692.45 Safari/537.36" etag="OqmwRTp2cMoCRAAH99h-" version="20.5.3" type="embed"><diagram id="pRrMxcFLCwWtb8T9meqg" name="Page-1"><mxGraphModel dx="829" dy="755" grid="1" gridSize="10" guides="1" tooltips="1" connect="1" arrows="1" fold="1" page="1" pageScale="1" pageWidth="10000" pageHeight="10000" math="0" shadow="0"><root><mxCell id="0"/><mxCell id="1" parent="0"/><mxCell id="5-wkUsiff9mdBDn99vMl-99" value="" style="rounded=1;arcSize=10;dashed=0;fillColor=none;gradientColor=none;strokeWidth=2;" parent="1" vertex="1"><mxGeometry x="3640" y="880" width="960" height="600" as="geometry"/></mxCell><mxCell id="5-wkUsiff9mdBDn99vMl-151" value="" style="rounded=1;arcSize=10;dashed=0;fillColor=none;gradientColor=none;strokeWidth=2;" parent="1" vertex="1"><mxGeometry x="3640" y="370" width="960" height="360" as="geometry"/></mxCell><mxCell id="5-wkUsiff9mdBDn99vMl-103" value="" style="group" parent="1" vertex="1" connectable="0"><mxGeometry x="4080" y="960" width="520" height="199.5" as="geometry"/></mxCell><mxCell id="5-wkUsiff9mdBDn99vMl-25" value="" style="rounded=1;arcSize=10;dashed=1;fillColor=none;gradientColor=none;dashPattern=8 3 1 3;strokeWidth=2;" parent="5-wkUsiff9mdBDn99vMl-103" vertex="1"><mxGeometry width="440" height="199.5" as="geometry"/></mxCell><mxCell id="5-wkUsiff9mdBDn99vMl-26" value="soldier-service" style="pointerEvents=1;shadow=0;dashed=0;html=1;strokeColor=none;fillColor=#505050;labelPosition=center;verticalLabelPosition=top;verticalAlign=bottom;outlineConnect=0;align=center;shape=mxgraph.office.services.web_services;" parent="5-wkUsiff9mdBDn99vMl-103" vertex="1"><mxGeometry x="39" y="39" width="120" height="120" as="geometry"/></mxCell><mxCell id="5-wkUsiff9mdBDn99vMl-78" value="s3export_kunde_db" style="shadow=0;dashed=0;html=1;strokeColor=none;fillColor=#505050;labelPosition=center;verticalLabelPosition=top;verticalAlign=bottom;outlineConnect=0;align=center;shape=mxgraph.office.databases.database;" parent="5-wkUsiff9mdBDn99vMl-103" vertex="1"><mxGeometry x="280" y="38" width="120" height="121" as="geometry"/></mxCell><mxCell id="5-wkUsiff9mdBDn99vMl-79" style="edgeStyle=orthogonalEdgeStyle;rounded=0;orthogonalLoop=1;jettySize=auto;html=1;" parent="5-wkUsiff9mdBDn99vMl-103" source="5-wkUsiff9mdBDn99vMl-26" target="5-wkUsiff9mdBDn99vMl-78" edge="1"><mxGeometry relative="1" as="geometry"/></mxCell><mxCell id="5-wkUsiff9mdBDn99vMl-107" value="" style="group" parent="1" vertex="1" connectable="0"><mxGeometry x="4080" y="1200" width="440" height="199.5" as="geometry"/></mxCell><mxCell id="5-wkUsiff9mdBDn99vMl-4" value="" style="rounded=1;arcSize=10;dashed=1;fillColor=none;gradientColor=none;dashPattern=8 3 1 3;strokeWidth=2;" parent="5-wkUsiff9mdBDn99vMl-107" vertex="1"><mxGeometry width="440" height="199.5" as="geometry"/></mxCell><mxCell id="5-wkUsiff9mdBDn99vMl-3" value="army-service" style="pointerEvents=1;shadow=0;dashed=0;html=1;strokeColor=none;fillColor=#505050;labelPosition=center;verticalLabelPosition=top;verticalAlign=bottom;outlineConnect=0;align=center;shape=mxgraph.office.services.web_services;" parent="5-wkUsiff9mdBDn99vMl-107" vertex="1"><mxGeometry x="39" y="39" width="120" height="120" as="geometry"/></mxCell><mxCell id="5-wkUsiff9mdBDn99vMl-76" value="emp_army_db" style="shadow=0;dashed=0;html=1;strokeColor=none;fillColor=#505050;labelPosition=center;verticalLabelPosition=top;verticalAlign=bottom;outlineConnect=0;align=center;shape=mxgraph.office.databases.database;" parent="5-wkUsiff9mdBDn99vMl-107" vertex="1"><mxGeometry x="280" y="38" width="120" height="121" as="geometry"/></mxCell><mxCell id="5-wkUsiff9mdBDn99vMl-81" style="edgeStyle=orthogonalEdgeStyle;rounded=0;orthogonalLoop=1;jettySize=auto;html=1;" parent="5-wkUsiff9mdBDn99vMl-107" source="5-wkUsiff9mdBDn99vMl-3" target="5-wkUsiff9mdBDn99vMl-76" edge="1"><mxGeometry relative="1" as="geometry"/></mxCell><mxCell id="5-wkUsiff9mdBDn99vMl-129" style="edgeStyle=orthogonalEdgeStyle;rounded=0;orthogonalLoop=1;jettySize=auto;html=1;exitX=0.5;exitY=0;exitDx=0;exitDy=0;entryX=0;entryY=0.5;entryDx=0;entryDy=0;" parent="1" source="5-wkUsiff9mdBDn99vMl-121" target="5-wkUsiff9mdBDn99vMl-25" edge="1"><mxGeometry relative="1" as="geometry"/></mxCell><mxCell id="5-wkUsiff9mdBDn99vMl-130" style="edgeStyle=orthogonalEdgeStyle;rounded=0;orthogonalLoop=1;jettySize=auto;html=1;exitX=0.5;exitY=1;exitDx=0;exitDy=0;entryX=0;entryY=0.5;entryDx=0;entryDy=0;" parent="1" source="5-wkUsiff9mdBDn99vMl-121" target="5-wkUsiff9mdBDn99vMl-4" edge="1"><mxGeometry relative="1" as="geometry"/></mxCell><mxCell id="5-wkUsiff9mdBDn99vMl-144" value="" style="group" parent="1" vertex="1" connectable="0"><mxGeometry x="4020" y="440" width="200" height="199.5" as="geometry"/></mxCell><mxCell id="5-wkUsiff9mdBDn99vMl-154" value="" style="group" parent="5-wkUsiff9mdBDn99vMl-144" vertex="1" connectable="0"><mxGeometry width="200" height="199.5" as="geometry"/></mxCell><mxCell id="5-wkUsiff9mdBDn99vMl-145" value="" style="rounded=1;arcSize=10;dashed=1;fillColor=none;gradientColor=none;dashPattern=8 3 1 3;strokeWidth=2;" parent="5-wkUsiff9mdBDn99vMl-154" vertex="1"><mxGeometry width="200" height="199.5" as="geometry"/></mxCell><mxCell id="5-wkUsiff9mdBDn99vMl-146" value="configuration-service" style="pointerEvents=1;shadow=0;dashed=0;html=1;strokeColor=none;fillColor=#505050;labelPosition=center;verticalLabelPosition=top;verticalAlign=bottom;outlineConnect=0;align=center;shape=mxgraph.office.services.web_services;" parent="5-wkUsiff9mdBDn99vMl-154" vertex="1"><mxGeometry x="39" y="39" width="120" height="120" as="geometry"/></mxCell><mxCell id="5-wkUsiff9mdBDn99vMl-150" value="" style="group" parent="1" vertex="1" connectable="0"><mxGeometry x="3720" y="1080" width="200" height="199.5" as="geometry"/></mxCell><mxCell id="5-wkUsiff9mdBDn99vMl-121" value="" style="rounded=1;arcSize=10;dashed=1;fillColor=none;gradientColor=none;dashPattern=8 3 1 3;strokeWidth=2;" parent="5-wkUsiff9mdBDn99vMl-150" vertex="1"><mxGeometry width="200" height="199.5" as="geometry"/></mxCell><mxCell id="5-wkUsiff9mdBDn99vMl-122" value="gateway-service" style="pointerEvents=1;shadow=0;dashed=0;html=1;strokeColor=none;fillColor=#505050;labelPosition=center;verticalLabelPosition=top;verticalAlign=bottom;outlineConnect=0;align=center;shape=mxgraph.office.services.web_services;" parent="5-wkUsiff9mdBDn99vMl-150" vertex="1"><mxGeometry x="39" y="39" width="120" height="120" as="geometry"/></mxCell><mxCell id="5-wkUsiff9mdBDn99vMl-152" value="" style="group" parent="1" vertex="1" connectable="0"><mxGeometry x="3720" y="440" width="200" height="199.5" as="geometry"/></mxCell><mxCell id="5-wkUsiff9mdBDn99vMl-153" value="" style="group" parent="5-wkUsiff9mdBDn99vMl-152" vertex="1" connectable="0"><mxGeometry width="200" height="199.5" as="geometry"/></mxCell><mxCell id="5-wkUsiff9mdBDn99vMl-148" value="" style="rounded=1;arcSize=10;dashed=1;fillColor=none;gradientColor=none;dashPattern=8 3 1 3;strokeWidth=2;" parent="5-wkUsiff9mdBDn99vMl-153" vertex="1"><mxGeometry width="200" height="199.5" as="geometry"/></mxCell><mxCell id="5-wkUsiff9mdBDn99vMl-149" value="tracing-service" style="pointerEvents=1;shadow=0;dashed=0;html=1;strokeColor=none;fillColor=#505050;labelPosition=center;verticalLabelPosition=top;verticalAlign=bottom;outlineConnect=0;align=center;shape=mxgraph.office.services.web_services;" parent="5-wkUsiff9mdBDn99vMl-153" vertex="1"><mxGeometry x="39" y="39" width="120" height="120" as="geometry"/></mxCell><mxCell id="5-wkUsiff9mdBDn99vMl-156" value="" style="group" parent="1" vertex="1" connectable="0"><mxGeometry x="4320" y="440" width="200" height="199.5" as="geometry"/></mxCell><mxCell id="5-wkUsiff9mdBDn99vMl-157" value="" style="group" parent="5-wkUsiff9mdBDn99vMl-156" vertex="1" connectable="0"><mxGeometry width="200" height="199.5" as="geometry"/></mxCell><mxCell id="5-wkUsiff9mdBDn99vMl-158" value="" style="rounded=1;arcSize=10;dashed=1;fillColor=none;gradientColor=none;dashPattern=8 3 1 3;strokeWidth=2;" parent="5-wkUsiff9mdBDn99vMl-157" vertex="1"><mxGeometry width="200" height="199.5" as="geometry"/></mxCell><mxCell id="5-wkUsiff9mdBDn99vMl-159" value="naming-service" style="pointerEvents=1;shadow=0;dashed=0;html=1;strokeColor=none;fillColor=#505050;labelPosition=center;verticalLabelPosition=top;verticalAlign=bottom;outlineConnect=0;align=center;shape=mxgraph.office.services.web_services;" parent="5-wkUsiff9mdBDn99vMl-157" vertex="1"><mxGeometry x="39" y="39" width="120" height="120" as="geometry"/></mxCell><mxCell id="5-wkUsiff9mdBDn99vMl-162" style="edgeStyle=orthogonalEdgeStyle;rounded=0;orthogonalLoop=1;jettySize=auto;html=1;exitX=0.5;exitY=1;exitDx=0;exitDy=0;entryX=0.5;entryY=0;entryDx=0;entryDy=0;" parent="1" source="5-wkUsiff9mdBDn99vMl-145" target="5-wkUsiff9mdBDn99vMl-99" edge="1"><mxGeometry relative="1" as="geometry"><mxPoint x="4340" y="880" as="targetPoint"/></mxGeometry></mxCell><mxCell id="5-wkUsiff9mdBDn99vMl-163" style="edgeStyle=orthogonalEdgeStyle;rounded=0;orthogonalLoop=1;jettySize=auto;html=1;exitX=0.5;exitY=1;exitDx=0;exitDy=0;entryX=0.75;entryY=0;entryDx=0;entryDy=0;" parent="1" source="5-wkUsiff9mdBDn99vMl-158" target="5-wkUsiff9mdBDn99vMl-99" edge="1"><mxGeometry relative="1" as="geometry"><mxPoint x="4730" y="880" as="targetPoint"/></mxGeometry></mxCell><mxCell id="5-wkUsiff9mdBDn99vMl-164" style="edgeStyle=orthogonalEdgeStyle;rounded=0;orthogonalLoop=1;jettySize=auto;html=1;exitX=0.5;exitY=1;exitDx=0;exitDy=0;entryX=0.25;entryY=0;entryDx=0;entryDy=0;" parent="1" source="5-wkUsiff9mdBDn99vMl-148" target="5-wkUsiff9mdBDn99vMl-99" edge="1"><mxGeometry relative="1" as="geometry"/></mxCell><mxCell id="5-wkUsiff9mdBDn99vMl-168" style="edgeStyle=orthogonalEdgeStyle;rounded=0;orthogonalLoop=1;jettySize=auto;html=1;entryX=0;entryY=0.5;entryDx=0;entryDy=0;" parent="1" source="5-wkUsiff9mdBDn99vMl-167" target="5-wkUsiff9mdBDn99vMl-121" edge="1"><mxGeometry relative="1" as="geometry"/></mxCell><mxCell id="5-wkUsiff9mdBDn99vMl-167" value="client application" style="pointerEvents=1;shadow=0;dashed=0;html=1;strokeColor=none;fillColor=#505050;labelPosition=center;verticalLabelPosition=bottom;verticalAlign=top;outlineConnect=0;align=center;shape=mxgraph.office.devices.laptop;" parent="1" vertex="1"><mxGeometry x="3030" y="1080" width="340" height="200" as="geometry"/></mxCell><mxCell id="tq6SRYw3SzSvSRfu4J4I-3" value="&lt;font style=&quot;font-size: 54px&quot;&gt;EMPIRE CASTLE - DEPLOYMENT MODEL&lt;/font&gt;" style="text;html=1;strokeColor=none;fillColor=none;align=center;verticalAlign=middle;whiteSpace=wrap;rounded=0;" parent="1" vertex="1"><mxGeometry x="3570" y="160" width="1150" height="150" as="geometry"/></mxCell></root></mxGraphModel></diagram></mxfile>